<mxfile host="app.diagrams.net" modified="2024-02-19T03:30:20.570Z" agent="Mozilla/5.0 (Windows NT 10.0; Win64; x64) AppleWebKit/537.36 (KHTML, like Gecko) Chrome/121.0.0.0 Safari/537.36" version="23.1.5" etag="OoncsvPkFXzTgWoEGJl3" type="github">
  <diagram name="Halaman-1" id="rk1iv84vebFV3fDZAqal">
    <mxGraphModel>
      <root>
        <mxCell id="0" />
        <mxCell id="1" parent="0" />
      </root>
    </mxGraphModel>
  </diagram>
</mxfile>
